<svg width="130" height="110" viewBox="0 0 130 110" fill="none" xmlns="http://www.w3.org/2000/svg">
<path d="M107.345 2.66987C101.879 4.13654 95.0786 5.86987 92.2786 6.66987L87.3453 8.0032L89.3453 11.8699C91.6119 16.2699 92.4119 16.5365 99.7453 14.4032C102.679 13.6032 105.212 13.2032 105.479 13.6032C106.279 14.4032 90.4119 37.2032 85.6119 42.2699C78.8119 49.3365 64.5453 58.4032 52.5453 63.2032C46.5453 65.7365 41.0786 67.4699 40.5453 67.2032C40.1453 66.8032 40.5453 63.4699 41.6119 59.6032C44.0119 50.0032 48.0119 18.8032 46.9453 17.7365C46.4119 17.2032 45.6119 17.0699 45.2119 17.4699C44.8119 17.8699 41.6119 29.8699 38.1453 44.0032L31.8786 69.8699L22.4119 73.3365C7.74525 78.6699 3.34525 82.5365 0.545253 92.4032C-1.72141 100.137 3.34525 108.403 10.8119 109.203C21.7453 110.403 27.8786 104.27 33.8786 86.4032L38.1453 73.4699L51.0786 70.0032C76.9453 62.8032 94.4119 50.4032 108.279 29.4699L116.012 18.0032L117.612 23.2032C118.412 26.1365 119.212 29.6032 119.212 30.8032C119.345 32.6699 120.545 33.2032 124.545 33.2032H129.612L125.479 16.5365C122.412 4.0032 120.945 -0.130127 119.345 0.00320435C118.279 0.00320435 112.812 1.33654 107.345 2.66987ZM30.0119 76.2699C30.0119 77.8699 24.5453 92.2699 22.1453 96.8032C15.6119 109.603 4.67859 109.87 4.67859 97.2032C4.67859 88.6699 10.5453 82.4032 22.8119 78.0032C28.2786 76.0032 30.0119 75.6032 30.0119 76.2699Z" fill="black"/>
</svg>
