<svg width="191" height="132" viewBox="0 0 191 132" fill="none" xmlns="http://www.w3.org/2000/svg">
<path d="M184.691 19.2C185.491 42 183.491 52.9334 175.624 69.0667C166.558 88 148.958 101.867 134.291 101.867C130.291 101.867 125.491 101.067 123.758 100.133C120.958 98.5334 120.824 98 121.758 92.2667C122.424 88.8 122.958 79.0667 122.824 70.6667C122.824 57.7334 122.291 54.2667 119.624 48.2667C114.158 35.6 105.491 31.2 95.091 35.7334C86.4243 39.6 84.291 43.7334 84.291 56.1334C84.291 65.0667 84.9576 67.4667 89.3576 76.2667C92.9576 83.7334 96.5576 88.5334 103.091 94.6667L111.891 102.933L109.491 107.6C106.158 113.867 95.3576 123.467 89.491 125.333C77.6243 129.333 61.3576 123.867 48.291 111.733C40.691 104.667 24.0243 83.2 25.2243 82C25.491 81.7334 28.691 82.2667 32.291 83.3334C35.7576 84.4 39.2243 85.3334 39.7576 85.3334C40.8243 85.3334 45.491 77.3334 44.691 76.8C43.2243 76 13.2243 66.6667 11.891 66.6667C10.691 66.6667 8.15762 73.4667 0.157618 98.9334C-0.375716 100.933 0.290951 101.333 4.55762 101.333C9.75762 101.333 9.75762 101.333 12.1576 93.7334L14.691 86L16.8243 89.3334C23.491 99.6 34.9576 113.6 40.1576 117.733C53.2243 128.533 67.6243 132.8 82.8243 130.4C95.3576 128.533 104.691 122.667 112.291 112.267L116.691 106.133L128.558 106C138.958 106 141.358 105.467 149.358 101.733C178.158 88 194.558 52.2667 189.091 14.8C187.358 2.80005 186.558 4.57764e-05 184.958 4.57764e-05C184.424 4.57764e-05 184.291 8.66671 184.691 19.2ZM106.824 41.3334C114.158 47.8667 116.291 55.2 116.291 74.9334C116.291 84.1334 115.758 92.2667 115.224 92.9334C113.491 94.5334 102.158 81.4667 97.6243 72.5334C94.1576 65.6 93.6243 63.2 93.6243 53.2C93.6243 36.8 97.491 33.2 106.824 41.3334Z" fill="black"/>
</svg>
