<svg width="38" height="38" viewBox="0 0 38 38" fill="none" xmlns="http://www.w3.org/2000/svg">
<g clip-path="url(#clip0_841_1793)">
<path d="M38 14.9502C37.6507 12.7346 35.8159 10.9952 33.5127 10.8281L5.25781 8.77832C2.41766 8.5724 0 10.8213 0 13.6689V0H38V14.9502Z" fill="white"/>
<path d="M32.8303 16.4332C35.6387 16.2805 38.0002 18.5171 38.0002 21.3296V41.4654C38.0001 44.1732 35.8047 46.3686 33.0969 46.3687H4.84198C2.13405 46.3687 -0.06126 44.1733 -0.0613403 41.4654V22.8648C-0.0612531 20.2604 1.97483 18.1108 4.57538 17.9693L32.8303 16.4332ZM9.97968 23.4976L5.63397 23.7466C3.94424 23.8432 2.65266 25.2913 2.74921 26.981L2.97577 30.9449C3.07244 32.6343 4.51974 33.9259 6.20917 33.8296L10.5558 33.5806C12.2453 33.4838 13.5362 32.0358 13.4396 30.3462L13.2141 26.3824C13.1173 24.693 11.6691 23.4013 9.97968 23.4976ZM18.0588 30.0347C17.7211 30.0533 17.4662 30.3419 17.4894 30.6792C17.5129 31.0168 17.8059 31.2755 18.1437 31.2574L33.8332 30.4048C34.1709 30.3863 34.4258 30.0977 34.4025 29.7603C34.3789 29.4229 34.086 29.164 33.7482 29.1822L18.0588 30.0347ZM17.5051 25.4996C17.1672 25.5179 16.9115 25.8066 16.9348 26.1441C16.9584 26.4816 17.2521 26.7406 17.59 26.7222L33.2785 25.8697C33.6165 25.8513 33.8713 25.5618 33.8478 25.2242C33.824 24.8868 33.5313 24.6287 33.1935 24.647L17.5051 25.4996Z" fill="white"/>
<path fill-rule="evenodd" clip-rule="evenodd" d="M10.5283 26.8974C10.6001 26.9693 10.6405 27.0667 10.6405 27.1683C10.6405 27.2698 10.6001 27.3673 10.5283 27.4391L7.6571 30.3103C7.61916 30.3482 7.57411 30.3783 7.52453 30.3989C7.47495 30.4194 7.42181 30.43 7.36814 30.43C7.31448 30.43 7.26133 30.4194 7.21175 30.3989C7.16217 30.3783 7.11713 30.3482 7.07918 30.3103L5.65265 28.884C5.61606 28.8487 5.58688 28.8064 5.56681 28.7597C5.54673 28.7129 5.53616 28.6627 5.53572 28.6118C5.53528 28.5609 5.54497 28.5105 5.56423 28.4634C5.58349 28.4163 5.61194 28.3736 5.6479 28.3376C5.68387 28.3016 5.72664 28.2732 5.77372 28.2539C5.82079 28.2347 5.87124 28.225 5.9221 28.2254C5.97296 28.2259 6.02323 28.2364 6.06996 28.2565C6.1167 28.2766 6.15897 28.3058 6.1943 28.3424L7.36801 29.5161L9.98639 26.8974C10.022 26.8618 10.0642 26.8336 10.1107 26.8143C10.1572 26.7951 10.207 26.7852 10.2573 26.7852C10.3077 26.7852 10.3575 26.7951 10.404 26.8143C10.4505 26.8336 10.4927 26.8618 10.5283 26.8974Z" fill="white"/>
</g>
<defs>
<clipPath id="clip0_841_1793">
<rect width="38" height="38" rx="6" fill="white"/>
</clipPath>
</defs>
</svg>
